<svg width="24" height="24" viewBox="0 0 24 24" fill="none" xmlns="http://www.w3.org/2000/svg">
<path fill-rule="evenodd" clip-rule="evenodd" d="M16.6016 4.07348C17.0428 4.40575 17.131 5.03273 16.7988 5.47388C16.4665 5.91504 15.8395 6.00332 15.3984 5.67106C14.4012 4.92004 12.7278 4.80007 11.6269 5.29651C10.8649 5.64021 10.3537 6.36651 10.0606 7.5002L10.0012 7.74937L9.376 10.999L12 11C12.5523 11 13 11.4477 13 12C13 12.5128 12.614 12.9355 12.1166 12.9933L12 13L8.991 12.999L8.03 18H16C16.5128 18 16.9355 18.386 16.9933 18.8834L17.0001 19C17.0001 19.5128 16.614 19.9355 16.1166 19.9933L16 20H8.01354C6.84997 20 5.88448 19.0771 6.00992 17.9497L6.03135 17.8077L6.955 12.999L6 13C5.44772 13 5 12.5523 5 12C5 11.4872 5.38604 11.0645 5.88338 11.0067L6 11L7.34 10.999L8.0424 7.34611C8.45206 5.48094 9.3309 4.13808 10.8046 3.47334C12.5458 2.6882 14.9955 2.86382 16.6016 4.07348Z" fill="black"/>
</svg>
